<mxfile host="app.diagrams.net" modified="2023-02-26T10:09:20.564Z" agent="5.0 (Windows NT 10.0; Win64; x64) AppleWebKit/537.36 (KHTML, like Gecko) Chrome/110.0.0.0 Safari/537.36" etag="mZs8KPfVz4iQoX2NRqVF" version="20.8.23" type="github">
  <diagram name="หน้า-1" id="j1Ryw0-h8rJsDmilSksS">
    <mxGraphModel dx="568" dy="314" grid="1" gridSize="10" guides="1" tooltips="1" connect="1" arrows="1" fold="1" page="1" pageScale="1" pageWidth="827" pageHeight="1169" math="0" shadow="0">
      <root>
        <mxCell id="0" />
        <mxCell id="1" parent="0" />
        <mxCell id="xG7zR8TlvOzS1UEiSsI5-6" value="1" style="swimlane;fontStyle=0;childLayout=stackLayout;horizontal=1;startSize=20;fillColor=#ffffff;horizontalStack=0;resizeParent=1;resizeParentMax=0;resizeLast=0;collapsible=0;marginBottom=0;swimlaneFillColor=#ffffff;rounded=1;" vertex="1" parent="1">
          <mxGeometry x="164" y="110" width="120" height="50" as="geometry" />
        </mxCell>
        <mxCell id="xG7zR8TlvOzS1UEiSsI5-10" value="ตรวจสอบสิทธิ์" style="text;html=1;strokeColor=none;fillColor=none;align=center;verticalAlign=middle;whiteSpace=wrap;rounded=0;" vertex="1" parent="xG7zR8TlvOzS1UEiSsI5-6">
          <mxGeometry y="20" width="120" height="30" as="geometry" />
        </mxCell>
        <mxCell id="xG7zR8TlvOzS1UEiSsI5-14" style="edgeStyle=orthogonalEdgeStyle;rounded=0;orthogonalLoop=1;jettySize=auto;html=1;entryX=0;entryY=0.2;entryDx=0;entryDy=0;entryPerimeter=0;" edge="1" parent="1" source="xG7zR8TlvOzS1UEiSsI5-11" target="xG7zR8TlvOzS1UEiSsI5-6">
          <mxGeometry relative="1" as="geometry">
            <Array as="points">
              <mxPoint x="94" y="120" />
            </Array>
          </mxGeometry>
        </mxCell>
        <mxCell id="xG7zR8TlvOzS1UEiSsI5-11" value="ลูกค้า" style="rounded=0;whiteSpace=wrap;html=1;" vertex="1" parent="1">
          <mxGeometry x="34" y="30" width="80" height="40" as="geometry" />
        </mxCell>
        <mxCell id="xG7zR8TlvOzS1UEiSsI5-15" style="edgeStyle=orthogonalEdgeStyle;rounded=0;orthogonalLoop=1;jettySize=auto;html=1;entryX=0.5;entryY=1;entryDx=0;entryDy=0;" edge="1" parent="1" source="xG7zR8TlvOzS1UEiSsI5-10" target="xG7zR8TlvOzS1UEiSsI5-11">
          <mxGeometry relative="1" as="geometry">
            <Array as="points">
              <mxPoint x="74" y="140" />
            </Array>
          </mxGeometry>
        </mxCell>
        <mxCell id="xG7zR8TlvOzS1UEiSsI5-19" style="edgeStyle=orthogonalEdgeStyle;rounded=0;orthogonalLoop=1;jettySize=auto;html=1;exitX=0.25;exitY=1;exitDx=0;exitDy=0;entryX=1;entryY=0.25;entryDx=0;entryDy=0;" edge="1" parent="1" source="xG7zR8TlvOzS1UEiSsI5-17" target="xG7zR8TlvOzS1UEiSsI5-6">
          <mxGeometry relative="1" as="geometry" />
        </mxCell>
        <mxCell id="xG7zR8TlvOzS1UEiSsI5-17" value="ผู้ดูแลระบบ" style="rounded=0;whiteSpace=wrap;html=1;" vertex="1" parent="1">
          <mxGeometry x="334" y="30" width="80" height="40" as="geometry" />
        </mxCell>
        <mxCell id="xG7zR8TlvOzS1UEiSsI5-18" style="edgeStyle=orthogonalEdgeStyle;rounded=0;orthogonalLoop=1;jettySize=auto;html=1;exitX=1;exitY=0.25;exitDx=0;exitDy=0;entryX=0.5;entryY=1;entryDx=0;entryDy=0;" edge="1" parent="1" source="xG7zR8TlvOzS1UEiSsI5-10" target="xG7zR8TlvOzS1UEiSsI5-17">
          <mxGeometry relative="1" as="geometry">
            <Array as="points">
              <mxPoint x="284" y="140" />
              <mxPoint x="374" y="140" />
            </Array>
          </mxGeometry>
        </mxCell>
        <mxCell id="xG7zR8TlvOzS1UEiSsI5-20" value="&lt;font style=&quot;font-size: 10px;&quot;&gt;ชื่อผู้ใช้/รหัส&lt;/font&gt;" style="text;html=1;strokeColor=none;fillColor=none;align=center;verticalAlign=middle;whiteSpace=wrap;rounded=0;" vertex="1" parent="1">
          <mxGeometry x="94" y="102" width="60" height="15" as="geometry" />
        </mxCell>
        <mxCell id="xG7zR8TlvOzS1UEiSsI5-22" value="&lt;font style=&quot;font-size: 10px;&quot;&gt;สิทธิ์การใช้งาน&lt;/font&gt;" style="text;html=1;strokeColor=none;fillColor=none;align=center;verticalAlign=middle;whiteSpace=wrap;rounded=0;" vertex="1" parent="1">
          <mxGeometry x="84" y="122" width="70" height="15" as="geometry" />
        </mxCell>
        <mxCell id="xG7zR8TlvOzS1UEiSsI5-23" value="&lt;font style=&quot;font-size: 10px;&quot;&gt;ชื่อผู้ใช้/รหัส&lt;/font&gt;" style="text;html=1;strokeColor=none;fillColor=none;align=center;verticalAlign=middle;whiteSpace=wrap;rounded=0;" vertex="1" parent="1">
          <mxGeometry x="296" y="105" width="60" height="15" as="geometry" />
        </mxCell>
        <mxCell id="xG7zR8TlvOzS1UEiSsI5-24" value="&lt;font style=&quot;font-size: 10px;&quot;&gt;สิทธิ์การใช้งาน&lt;/font&gt;" style="text;html=1;strokeColor=none;fillColor=none;align=center;verticalAlign=middle;whiteSpace=wrap;rounded=0;" vertex="1" parent="1">
          <mxGeometry x="296" y="122" width="70" height="15" as="geometry" />
        </mxCell>
        <mxCell id="xG7zR8TlvOzS1UEiSsI5-28" style="edgeStyle=orthogonalEdgeStyle;rounded=0;orthogonalLoop=1;jettySize=auto;html=1;entryX=0.5;entryY=1;entryDx=0;entryDy=0;fontSize=10;" edge="1" parent="1" source="xG7zR8TlvOzS1UEiSsI5-25" target="xG7zR8TlvOzS1UEiSsI5-10">
          <mxGeometry relative="1" as="geometry">
            <Array as="points">
              <mxPoint x="224" y="210" />
              <mxPoint x="224" y="210" />
            </Array>
          </mxGeometry>
        </mxCell>
        <mxCell id="xG7zR8TlvOzS1UEiSsI5-44" style="edgeStyle=orthogonalEdgeStyle;rounded=0;orthogonalLoop=1;jettySize=auto;html=1;fontSize=10;exitX=-0.014;exitY=0.082;exitDx=0;exitDy=0;exitPerimeter=0;" edge="1" parent="1" source="xG7zR8TlvOzS1UEiSsI5-25" target="xG7zR8TlvOzS1UEiSsI5-29">
          <mxGeometry relative="1" as="geometry">
            <Array as="points">
              <mxPoint x="214" y="280" />
              <mxPoint x="150" y="280" />
            </Array>
          </mxGeometry>
        </mxCell>
        <mxCell id="xG7zR8TlvOzS1UEiSsI5-25" value="D1" style="html=1;dashed=0;whitespace=wrap;shape=mxgraph.dfd.dataStoreID;align=left;spacingLeft=3;points=[[0,0],[0.5,0],[1,0],[0,0.5],[1,0.5],[0,1],[0.5,1],[1,1]];rounded=1;fontSize=10;" vertex="1" parent="1">
          <mxGeometry x="215" y="280" width="100" height="20" as="geometry" />
        </mxCell>
        <mxCell id="xG7zR8TlvOzS1UEiSsI5-27" value="&lt;span style=&quot;font-size: 10px;&quot;&gt;ข้อมูลผู้ใช้งาน&lt;/span&gt;" style="text;html=1;strokeColor=none;fillColor=none;align=center;verticalAlign=middle;whiteSpace=wrap;rounded=0;" vertex="1" parent="1">
          <mxGeometry x="243" y="282.5" width="72" height="15" as="geometry" />
        </mxCell>
        <mxCell id="xG7zR8TlvOzS1UEiSsI5-43" style="edgeStyle=orthogonalEdgeStyle;rounded=0;orthogonalLoop=1;jettySize=auto;html=1;exitX=0.75;exitY=0;exitDx=0;exitDy=0;fontSize=10;entryX=0;entryY=1;entryDx=0;entryDy=0;" edge="1" parent="1" source="xG7zR8TlvOzS1UEiSsI5-29" target="xG7zR8TlvOzS1UEiSsI5-25">
          <mxGeometry relative="1" as="geometry">
            <mxPoint x="210" y="300" as="targetPoint" />
            <Array as="points">
              <mxPoint x="168" y="300" />
            </Array>
          </mxGeometry>
        </mxCell>
        <mxCell id="xG7zR8TlvOzS1UEiSsI5-29" value="2" style="swimlane;fontStyle=0;childLayout=stackLayout;horizontal=1;startSize=20;fillColor=#ffffff;horizontalStack=0;resizeParent=1;resizeParentMax=0;resizeLast=0;collapsible=0;marginBottom=0;swimlaneFillColor=#ffffff;rounded=1;" vertex="1" parent="1">
          <mxGeometry x="78" y="430" width="120" height="50" as="geometry" />
        </mxCell>
        <mxCell id="xG7zR8TlvOzS1UEiSsI5-30" value="จัดการข้อมูลพื้นฐาน" style="text;html=1;strokeColor=none;fillColor=none;align=center;verticalAlign=middle;whiteSpace=wrap;rounded=0;" vertex="1" parent="xG7zR8TlvOzS1UEiSsI5-29">
          <mxGeometry y="20" width="120" height="30" as="geometry" />
        </mxCell>
        <mxCell id="xG7zR8TlvOzS1UEiSsI5-31" value="3" style="swimlane;fontStyle=0;childLayout=stackLayout;horizontal=1;startSize=20;fillColor=#ffffff;horizontalStack=0;resizeParent=1;resizeParentMax=0;resizeLast=0;collapsible=0;marginBottom=0;swimlaneFillColor=#ffffff;rounded=1;" vertex="1" parent="1">
          <mxGeometry x="164" y="690" width="120" height="50" as="geometry" />
        </mxCell>
        <mxCell id="xG7zR8TlvOzS1UEiSsI5-32" value="สมัครสมาชิก" style="text;html=1;strokeColor=none;fillColor=none;align=center;verticalAlign=middle;whiteSpace=wrap;rounded=0;" vertex="1" parent="xG7zR8TlvOzS1UEiSsI5-31">
          <mxGeometry y="20" width="120" height="30" as="geometry" />
        </mxCell>
        <mxCell id="xG7zR8TlvOzS1UEiSsI5-34" value="4" style="swimlane;fontStyle=0;childLayout=stackLayout;horizontal=1;startSize=20;fillColor=#ffffff;horizontalStack=0;resizeParent=1;resizeParentMax=0;resizeLast=0;collapsible=0;marginBottom=0;swimlaneFillColor=#ffffff;rounded=1;" vertex="1" parent="1">
          <mxGeometry x="104" y="920" width="120" height="50" as="geometry" />
        </mxCell>
        <mxCell id="xG7zR8TlvOzS1UEiSsI5-35" value="การสั่งซื้อ" style="text;html=1;strokeColor=none;fillColor=none;align=center;verticalAlign=middle;whiteSpace=wrap;rounded=0;" vertex="1" parent="xG7zR8TlvOzS1UEiSsI5-34">
          <mxGeometry y="20" width="120" height="30" as="geometry" />
        </mxCell>
        <mxCell id="xG7zR8TlvOzS1UEiSsI5-39" value="D2" style="html=1;dashed=0;whitespace=wrap;shape=mxgraph.dfd.dataStoreID;align=left;spacingLeft=3;points=[[0,0],[0.5,0],[1,0],[0,0.5],[1,0.5],[0,1],[0.5,1],[1,1]];rounded=1;fontSize=10;" vertex="1" parent="1">
          <mxGeometry x="266" y="520" width="100" height="20" as="geometry" />
        </mxCell>
        <mxCell id="xG7zR8TlvOzS1UEiSsI5-40" value="D3" style="html=1;dashed=0;whitespace=wrap;shape=mxgraph.dfd.dataStoreID;align=left;spacingLeft=3;points=[[0,0],[0.5,0],[1,0],[0,0.5],[1,0.5],[0,1],[0.5,1],[1,1]];rounded=1;fontSize=10;" vertex="1" parent="1">
          <mxGeometry x="229" y="550" width="100" height="20" as="geometry" />
        </mxCell>
        <mxCell id="xG7zR8TlvOzS1UEiSsI5-41" value="D4" style="html=1;dashed=0;whitespace=wrap;shape=mxgraph.dfd.dataStoreID;align=left;spacingLeft=3;points=[[0,0],[0.5,0],[1,0],[0,0.5],[1,0.5],[0,1],[0.5,1],[1,1]];rounded=1;fontSize=10;" vertex="1" parent="1">
          <mxGeometry x="196" y="585" width="100" height="20" as="geometry" />
        </mxCell>
        <mxCell id="xG7zR8TlvOzS1UEiSsI5-46" value="D5" style="html=1;dashed=0;whitespace=wrap;shape=mxgraph.dfd.dataStoreID;align=left;spacingLeft=3;points=[[0,0],[0.5,0],[1,0],[0,0.5],[1,0.5],[0,1],[0.5,1],[1,1]];rounded=1;fontSize=10;" vertex="1" parent="1">
          <mxGeometry x="284" y="830" width="136" height="20" as="geometry" />
        </mxCell>
        <mxCell id="xG7zR8TlvOzS1UEiSsI5-47" value="&lt;span style=&quot;font-size: 10px;&quot;&gt;ข้อมูลร้าน&lt;/span&gt;" style="text;html=1;strokeColor=none;fillColor=none;align=center;verticalAlign=middle;whiteSpace=wrap;rounded=0;" vertex="1" parent="1">
          <mxGeometry x="290" y="522.5" width="72" height="15" as="geometry" />
        </mxCell>
        <mxCell id="xG7zR8TlvOzS1UEiSsI5-49" value="5" style="swimlane;fontStyle=0;childLayout=stackLayout;horizontal=1;startSize=20;fillColor=#ffffff;horizontalStack=0;resizeParent=1;resizeParentMax=0;resizeLast=0;collapsible=0;marginBottom=0;swimlaneFillColor=#ffffff;rounded=1;" vertex="1" parent="1">
          <mxGeometry x="490" y="150" width="120" height="50" as="geometry" />
        </mxCell>
        <mxCell id="xG7zR8TlvOzS1UEiSsI5-50" value="ชำระเงิน" style="text;html=1;strokeColor=none;fillColor=none;align=center;verticalAlign=middle;whiteSpace=wrap;rounded=0;" vertex="1" parent="xG7zR8TlvOzS1UEiSsI5-49">
          <mxGeometry y="20" width="120" height="30" as="geometry" />
        </mxCell>
        <mxCell id="xG7zR8TlvOzS1UEiSsI5-52" value="6" style="swimlane;fontStyle=0;childLayout=stackLayout;horizontal=1;startSize=20;fillColor=#ffffff;horizontalStack=0;resizeParent=1;resizeParentMax=0;resizeLast=0;collapsible=0;marginBottom=0;swimlaneFillColor=#ffffff;rounded=1;" vertex="1" parent="1">
          <mxGeometry x="540" y="430" width="120" height="50" as="geometry" />
        </mxCell>
        <mxCell id="xG7zR8TlvOzS1UEiSsI5-53" value="จัดส่ง" style="text;html=1;strokeColor=none;fillColor=none;align=center;verticalAlign=middle;whiteSpace=wrap;rounded=0;" vertex="1" parent="xG7zR8TlvOzS1UEiSsI5-52">
          <mxGeometry y="20" width="120" height="30" as="geometry" />
        </mxCell>
        <mxCell id="xG7zR8TlvOzS1UEiSsI5-55" value="7" style="swimlane;fontStyle=0;childLayout=stackLayout;horizontal=1;startSize=20;fillColor=#ffffff;horizontalStack=0;resizeParent=1;resizeParentMax=0;resizeLast=0;collapsible=0;marginBottom=0;swimlaneFillColor=#ffffff;rounded=1;" vertex="1" parent="1">
          <mxGeometry x="520" y="680" width="120" height="50" as="geometry" />
        </mxCell>
        <mxCell id="xG7zR8TlvOzS1UEiSsI5-56" value="นัดติดตั้ง" style="text;html=1;strokeColor=none;fillColor=none;align=center;verticalAlign=middle;whiteSpace=wrap;rounded=0;" vertex="1" parent="xG7zR8TlvOzS1UEiSsI5-55">
          <mxGeometry y="20" width="120" height="30" as="geometry" />
        </mxCell>
        <mxCell id="xG7zR8TlvOzS1UEiSsI5-58" value="8" style="swimlane;fontStyle=0;childLayout=stackLayout;horizontal=1;startSize=20;fillColor=#ffffff;horizontalStack=0;resizeParent=1;resizeParentMax=0;resizeLast=0;collapsible=0;marginBottom=0;swimlaneFillColor=#ffffff;rounded=1;" vertex="1" parent="1">
          <mxGeometry x="540" y="870" width="120" height="50" as="geometry" />
        </mxCell>
        <mxCell id="xG7zR8TlvOzS1UEiSsI5-59" value="รายงาน" style="text;html=1;strokeColor=none;fillColor=none;align=center;verticalAlign=middle;whiteSpace=wrap;rounded=0;" vertex="1" parent="xG7zR8TlvOzS1UEiSsI5-58">
          <mxGeometry y="20" width="120" height="30" as="geometry" />
        </mxCell>
        <mxCell id="xG7zR8TlvOzS1UEiSsI5-60" value="&lt;span style=&quot;font-size: 10px;&quot;&gt;ข้อมูลลูกค้า&lt;/span&gt;" style="text;html=1;strokeColor=none;fillColor=none;align=center;verticalAlign=middle;whiteSpace=wrap;rounded=0;" vertex="1" parent="1">
          <mxGeometry x="257" y="550" width="72" height="15" as="geometry" />
        </mxCell>
        <mxCell id="xG7zR8TlvOzS1UEiSsI5-61" value="&lt;span style=&quot;font-size: 10px;&quot;&gt;ข้อมูลสินค้า&lt;/span&gt;" style="text;html=1;strokeColor=none;fillColor=none;align=center;verticalAlign=middle;whiteSpace=wrap;rounded=0;" vertex="1" parent="1">
          <mxGeometry x="224" y="585" width="72" height="15" as="geometry" />
        </mxCell>
        <mxCell id="xG7zR8TlvOzS1UEiSsI5-62" value="&lt;span style=&quot;font-size: 10px;&quot;&gt;ข้อมูลการสมัครสมาชิก&lt;/span&gt;" style="text;html=1;strokeColor=none;fillColor=none;align=center;verticalAlign=middle;whiteSpace=wrap;rounded=0;" vertex="1" parent="1">
          <mxGeometry x="312" y="830" width="108" height="15" as="geometry" />
        </mxCell>
        <mxCell id="xG7zR8TlvOzS1UEiSsI5-63" value="D6" style="html=1;dashed=0;whitespace=wrap;shape=mxgraph.dfd.dataStoreID;align=left;spacingLeft=3;points=[[0,0],[0.5,0],[1,0],[0,0.5],[1,0.5],[0,1],[0.5,1],[1,1]];rounded=1;fontSize=10;" vertex="1" parent="1">
          <mxGeometry x="258" y="1020" width="112" height="20" as="geometry" />
        </mxCell>
        <mxCell id="xG7zR8TlvOzS1UEiSsI5-64" value="&lt;span style=&quot;font-size: 10px;&quot;&gt;ข้อมูลการสั่งซื้อ&lt;/span&gt;" style="text;html=1;strokeColor=none;fillColor=none;align=center;verticalAlign=middle;whiteSpace=wrap;rounded=0;" vertex="1" parent="1">
          <mxGeometry x="280" y="1020" width="96" height="20" as="geometry" />
        </mxCell>
        <mxCell id="xG7zR8TlvOzS1UEiSsI5-65" value="D7" style="html=1;dashed=0;whitespace=wrap;shape=mxgraph.dfd.dataStoreID;align=left;spacingLeft=3;points=[[0,0],[0.5,0],[1,0],[0,0.5],[1,0.5],[0,1],[0.5,1],[1,1]];rounded=1;fontSize=10;" vertex="1" parent="1">
          <mxGeometry x="590" y="262.5" width="110" height="20" as="geometry" />
        </mxCell>
        <mxCell id="xG7zR8TlvOzS1UEiSsI5-66" value="&lt;span style=&quot;font-size: 10px;&quot;&gt;ข้อมูลการชำระเงิน&lt;/span&gt;" style="text;html=1;strokeColor=none;fillColor=none;align=center;verticalAlign=middle;whiteSpace=wrap;rounded=0;" vertex="1" parent="1">
          <mxGeometry x="618" y="263.5" width="82" height="15" as="geometry" />
        </mxCell>
        <mxCell id="xG7zR8TlvOzS1UEiSsI5-67" value="D8" style="html=1;dashed=0;whitespace=wrap;shape=mxgraph.dfd.dataStoreID;align=left;spacingLeft=3;points=[[0,0],[0.5,0],[1,0],[0,0.5],[1,0.5],[0,1],[0.5,1],[1,1]];rounded=1;fontSize=10;" vertex="1" parent="1">
          <mxGeometry x="618" y="565" width="110" height="20" as="geometry" />
        </mxCell>
        <mxCell id="xG7zR8TlvOzS1UEiSsI5-68" value="&lt;span style=&quot;font-size: 10px;&quot;&gt;ข้อมูลการจัดส่ง&lt;/span&gt;" style="text;html=1;strokeColor=none;fillColor=none;align=center;verticalAlign=middle;whiteSpace=wrap;rounded=0;" vertex="1" parent="1">
          <mxGeometry x="646" y="566" width="82" height="15" as="geometry" />
        </mxCell>
        <mxCell id="xG7zR8TlvOzS1UEiSsI5-69" value="D9" style="html=1;dashed=0;whitespace=wrap;shape=mxgraph.dfd.dataStoreID;align=left;spacingLeft=3;points=[[0,0],[0.5,0],[1,0],[0,0.5],[1,0.5],[0,1],[0.5,1],[1,1]];rounded=1;fontSize=10;" vertex="1" parent="1">
          <mxGeometry x="618" y="780" width="110" height="20" as="geometry" />
        </mxCell>
        <mxCell id="xG7zR8TlvOzS1UEiSsI5-70" value="&lt;span style=&quot;font-size: 10px;&quot;&gt;ข้อมูลการนัดติดตั้ง&lt;/span&gt;" style="text;html=1;strokeColor=none;fillColor=none;align=center;verticalAlign=middle;whiteSpace=wrap;rounded=0;" vertex="1" parent="1">
          <mxGeometry x="647" y="781" width="82" height="19" as="geometry" />
        </mxCell>
      </root>
    </mxGraphModel>
  </diagram>
</mxfile>
